<svg xmlns="http://www.w3.org/2000/svg" viewBox="0 0 180 180">
  <defs>
    <linearGradient id="grad" x1="0%" y1="0%" x2="100%" y2="100%">
      <stop offset="0%" style="stop-color:#00D4AA;stop-opacity:1" />
      <stop offset="100%" style="stop-color:#00B894;stop-opacity:1" />
    </linearGradient>
  </defs>
  
  <!-- Background with rounded corners -->
  <rect x="10" y="10" width="160" height="160" rx="40" fill="#1a1a1a" stroke="url(#grad)" stroke-width="4"/>
  
  <!-- Letter P stylized (scaled) -->
  <path d="M50 40 L50 140 L70 140 L70 100 L90 100 C108 100 120 88 120 70 C120 52 108 40 90 40 L50 40 Z M70 60 L90 60 C95 60 100 65 100 70 C100 75 95 80 90 80 L70 80 Z" 
        fill="url(#grad)" />
  
  <!-- Investment arrow (scaled) -->
  <path d="M130 120 L150 140 L130 160 M150 140 L90 140" 
        stroke="#00D4AA" 
        stroke-width="4" 
        fill="none" 
        stroke-linecap="round" 
        stroke-linejoin="round"/>
</svg>
